<svg id="Layer_3" enable-background="new 0 0 64 64" height="512" viewBox="0 0 64 64" width="512" xmlns="http://www.w3.org/2000/svg"><path d="m50 54v4c0 2.21-1.79 4-4 4h-28c-2.21 0-4-1.79-4-4v-4z" fill="#969faa"/><path d="m50 6v4h-36v-4c0-2.21 1.79-4 4-4h28c2.21 0 4 1.79 4 4z" fill="#969faa"/><path d="m14 10v29 15h36v-19-25z" fill="#69d6f4"/><path d="m42 18.95c0 1.31-.52 2.57-1.45 3.5l-8.55 8.55-8.55-8.55c-.93-.93-1.45-2.19-1.45-3.5 0-1.37.56-2.6 1.45-3.5.9-.89 2.13-1.45 3.5-1.45 1.31 0 2.57.52 3.5 1.45l1.55 1.55 1.55-1.55c.93-.93 2.19-1.45 3.5-1.45 1.37 0 2.6.56 3.5 1.45.89.9 1.45 2.13 1.45 3.5z" fill="#ff826e"/><path d="m51 6c0-2.757-2.243-5-5-5h-28c-2.757 0-5 2.243-5 5v32h-8v2h8v18c0 2.757 2.243 5 5 5h28c2.757 0 5-2.243 5-5v-22h8v-2h-8zm-33-3h28c1.654 0 3 1.346 3 3v3h-34v-3c0-1.654 1.346-3 3-3zm-3 8h34v23h-7.618l-3.44 6.882-4.101-7.176-3.755 9.388-5.03-15.09-3.749 9.996h-6.307zm31 50h-28c-1.654 0-3-1.346-3-3v-3h34v3c0 1.654-1.346 3-3 3zm3-8h-34v-13h7.693l2.251-6.004 4.97 14.91 4.245-10.612 3.899 6.824 4.56-9.118h6.382z"/><path d="m27 57h10v2h-10z"/><path d="m1 38h2v2h-2z"/><path d="m61 34h2v2h-2z"/><path d="m32 32.414 9.257-9.257c1.124-1.124 1.743-2.618 1.743-4.207 0-3.281-2.669-5.95-5.95-5.95-1.589 0-3.083.619-4.207 1.743l-.843.843-.843-.843c-1.124-1.124-2.618-1.743-4.207-1.743-3.281 0-5.95 2.669-5.95 5.95 0 1.589.619 3.083 1.743 4.207zm-5.05-17.414c1.055 0 2.047.411 2.793 1.157l2.257 2.257 2.257-2.257c.746-.746 1.738-1.157 2.793-1.157 2.178 0 3.95 1.772 3.95 3.95 0 1.055-.411 2.047-1.157 2.793l-7.843 7.843-7.843-7.843c-.746-.746-1.157-1.738-1.157-2.793 0-2.178 1.772-3.95 3.95-3.95z"/><path d="m45 13h2v2h-2z"/><path d="m45 17h2v2h-2z"/><path d="m45 21h2v2h-2z"/><path d="m17 13h2v2h-2z"/><path d="m17 17h2v2h-2z"/><path d="m17 21h2v2h-2z"/></svg>