<svg id="Layer_1" enable-background="new 0 0 512.002 512.002" height="512" viewBox="0 0 512.002 512.002" width="512" xmlns="http://www.w3.org/2000/svg"><g><g><path d="m483.373 495.246-198.981-217.13v-26.112c0-22.056-17.943-40-40-40h-50.003v-80.003c0-5.136-.984-10.044-2.755-14.559 24.678-7.457 42.755-30.448 42.755-57.442 0-33.084-26.916-60-60-60s-60 26.916-60 60c0 15.236 5.635 29.482 15.568 40.363-9.46 7.323-15.568 18.778-15.568 31.638v120.003 95.041l-85.459 85.458c-3.905 3.905-3.905 10.237 0 14.143l42.426 42.427c1.875 1.875 4.419 2.929 7.071 2.929s5.196-1.054 7.071-2.929l28.89-28.889v41.819c0 5.522 4.477 10 10 10h60c5.523 0 10-4.478 10-10v-60.003c0-5.522-4.477-10-10-10s-10 4.478-10 10v50.003h-40v-205.38c5.888 3.415 12.717 5.381 20 5.381h20v59.995c0 5.522 4.477 10 10 10s10-4.478 10-10v-59.995h75.604l198.636 216.754c1.972 2.152 4.669 3.244 7.375 3.244 2.413 0 4.834-.868 6.753-2.628 4.073-3.731 4.349-10.057.617-14.128zm-348.985-435.246c0-22.056 17.944-40 40-40s40 17.944 40 40c0 20.733-15.993 37.926-36.286 39.813-6.641-4.906-14.844-7.813-23.715-7.813-1.26 0-2.505.066-3.736.18-10.234-7.533-16.263-19.324-16.263-32.18zm-55.961 407.858-28.284-28.284 64.245-64.245v56.568zm185.965-195.854h-110.004c-11.028 0-20-8.972-20-20v-120.003c0-11.028 8.972-20 20-20 11.028 0 20 8.972 20 20v90.003c0 5.522 4.477 10 10 10h60.003c11.028 0 20 8.972 20 20v20z"/><path d="m184.389 386.996c-5.523 0-10 4.478-10 10v.007c0 5.522 4.477 9.996 10 9.996s10-4.48 10-10.003-4.477-10-10-10z"/></g></g></svg>