<svg id="Capa_1" enable-background="new 0 0 512 512" height="512" viewBox="0 0 512 512" width="512" xmlns="http://www.w3.org/2000/svg"><g><path d="m151 196v308.5c49.706 0 90-40.294 90-90v-158.5z" fill="#9bfef7"/><path d="m211 414.5v-158.5l-60-60-90 60v158.5c0 49.706 40.294 90 90 90 33.137 0 60-40.294 60-90z" fill="#dbfffc"/><path d="m151 7.5 60 248.5h30v-158.5c0-49.706-40.294-90-90-90z" fill="#b861ff"/><path d="m211 97.5c0-49.706-26.863-90-60-90-49.706 0-90 40.294-90 90v158.5h150z" fill="#c782ff"/><path d="m361 316v-308.5c49.706 0 90 40.294 90 90v158.5z" fill="#ffd959"/><path d="m421 97.5v158.5l-60 60-90-60v-158.5c0-49.706 40.294-90 90-90 33.137 0 60 40.294 60 90z" fill="#ffeaa6"/><path d="m361 504.5 60-248.5h30v158.5c0 49.706-40.294 90-90 90z" fill="#f22433"/><path d="m421 414.5c0 49.706-26.863 90-60 90-49.706 0-90-40.294-90-90v-158.5h150z" fill="#ff4c4e"/><path d="m151 0c-53.762 0-97.5 43.738-97.5 97.5v158.5c0 4.143 3.358 7.5 7.5 7.5h172.5v151c0 45.49-37.009 82.5-82.5 82.5s-82.5-37.01-82.5-82.5v-128.5c0-4.143-3.358-7.5-7.5-7.5s-7.5 3.357-7.5 7.5v128.5c0 53.762 43.738 97.5 97.5 97.5s97.5-43.738 97.5-97.5v-317c0-53.762-43.738-97.5-97.5-97.5zm82.5 248.5h-165v-151c0-45.49 37.009-82.5 82.5-82.5s82.5 37.01 82.5 82.5z"/><path d="m361 0c-53.762 0-97.5 43.738-97.5 97.5v317c0 53.762 43.738 97.5 97.5 97.5s97.5-43.738 97.5-97.5v-317c0-53.762-43.738-97.5-97.5-97.5zm0 15c45.491 0 82.5 37.01 82.5 82.5v151h-165v-151c0-45.49 37.009-82.5 82.5-82.5zm0 482c-45.491 0-82.5-37.01-82.5-82.5v-151h165v151c0 45.49-37.009 82.5-82.5 82.5z"/></g></svg>