<svg id="Capa_1" enable-background="new 0 0 512 512" height="512" viewBox="0 0 512 512" width="512" xmlns="http://www.w3.org/2000/svg"><g><path d="m333.5 210c-8.284 0-15 6.716-15 15s6.716 15 15 15c13.785 0 25 11.215 25 25v212h30v-212c0-30.327-24.673-55-55-55z" fill="#784033"/><path d="m228.5 512h-70c-7.964 0-14.541-6.225-14.978-14.177l-10-182c-.226-4.115 1.251-8.142 4.084-11.134 2.833-2.993 6.772-4.688 10.894-4.688h90c4.121 0 8.061 1.695 10.894 4.688s4.31 7.02 4.084 11.134l-10 182c-.438 7.952-7.014 14.177-14.978 14.177z" fill="#f9f9f9"/><g><path d="m249.393 304.688c-2.833-2.993-6.772-4.688-10.893-4.688h-26v212h16c7.964 0 14.541-6.225 14.978-14.177l10-182c.225-4.115-1.252-8.142-4.085-11.135z" fill="#eaf1ff"/></g><g><path d="m263.5 330h-140c-8.284 0-15-6.716-15-15v-115c0-49.706 40.294-90 90-90h20c33.137 0 60 26.863 60 60v145c0 8.284-6.716 15-15 15z" fill="#acceff"/></g><g><path d="m218.5 110h-6v220h51c8.284 0 15-6.716 15-15v-145c0-33.137-26.863-60-60-60z" fill="#989dec"/></g><path d="m212.5 125c-28.242 0-51.136-22.895-51.136-51.136v-22.728c0-28.241 22.894-51.136 51.136-51.136 28.242 0 51.136 22.895 51.136 51.136v22.727c0 28.242-22.894 51.137-51.136 51.137z" fill="#ffdecf"/><path d="m318.5 240h-84.64c-5.139 0-10.073-2.437-12.885-6.739-3.979-6.085-3.033-13.916 1.919-18.868l30-30c2.812-2.813 6.628-4.394 10.606-4.394h55c16.569 0 30 13.431 30 30 0 16.57-13.431 30.001-30 30.001z" fill="#989dec"/><path d="m373.5 462c-16.569 0-30 13.431-30 30v5c0 8.284 6.716 15 15 15h30c8.284 0 15-6.716 15-15v-5c0-16.569-13.431-30-30-30z" fill="#2e2654"/><path d="m241 240-25.5-34c-4.97-6.626-14.372-7.971-21-3-6.627 4.971-7.971 14.373-3 21l30 40c2.833 3.777 7.279 6 12 6h45v-30z" fill="#989dec"/><g><path d="m212.5 0v125c28.242 0 51.136-22.895 51.136-51.136v-22.728c0-28.241-22.894-51.136-51.136-51.136z" fill="#ffcdbe"/></g><g><path d="m241 240-25.5-34c-.874-1.166-1.891-2.158-3-2.991v48.99l9 12.001c2.833 3.777 7.279 6 12 6h45v-30z" fill="#525cdd"/></g></g></svg>