<svg height="512pt" viewBox="0 0 512 512" width="512pt" xmlns="http://www.w3.org/2000/svg"><path d="m26.484375 0h459.03125c4.878906 0 8.828125 3.953125 8.828125 8.828125v432.550781h-476.6875v-432.550781c0-4.875 3.949219-8.828125 8.828125-8.828125zm0 0" fill="#e4c05c"/><path d="m476.691406 26.484375v388.414063c0 4.875-3.953125 8.824218-8.828125 8.824218h-423.726562c-4.875 0-8.828125-3.949218-8.828125-8.824218v-388.414063c0-4.878906 3.953125-8.828125 8.828125-8.828125h423.726562c4.875 0 8.828125 3.949219 8.828125 8.828125zm0 0" fill="#b19046"/><path d="m459.035156 35.308594v370.761718h-406.070312v-370.761718zm0 0" fill="#556080"/><path d="m512 476.691406v26.480469c0 4.875-3.953125 8.828125-8.828125 8.828125h-494.34375c-4.875 0-8.828125-3.953125-8.828125-8.828125v-26.480469zm0 0" fill="#e4c05c"/><path d="m512 476.691406h-512l17.65625-35.3125h476.6875zm0 0" fill="#b19046"/><path d="m52.964844 476.691406c0 4.875-3.953125 8.824219-8.828125 8.824219h-44.136719v-8.824219l4.414062-8.828125h39.722657c4.875 0 8.828125 3.949219 8.828125 8.828125zm0 0" fill="#f9eab0"/><path d="m512 476.691406v8.824219h-432.550781c-4.875 0-8.828125-3.949219-8.828125-8.824219 0-4.878906 3.953125-8.828125 8.828125-8.828125h428.136719zm0 0" fill="#f9eab0"/><path d="m52.964844 406.070312 153.265625-59.605468c3.394531-1.316406 5.632812-4.585938 5.632812-8.226563v-235.097656c0-3.640625-2.238281-6.90625-5.632812-8.226563l-153.265625-59.605468zm0 0" fill="#e4c05c"/><g fill="#67b9cc"><path d="m141.242188 266.59375v67.265625l-52.964844 20.566406v-71.941406zm0 0"/><path d="m141.242188 174.785156v91.808594l-52.964844 15.890625v-123.585937zm0 0"/><path d="m141.242188 107.519531v67.265625l-52.964844-15.886718v-71.945313zm0 0"/><path d="m176.550781 121.292969v64.085937l-35.308593-10.59375v-67.265625zm0 0"/><path d="m176.550781 185.378906v70.621094l-35.308593 10.59375v-91.808594zm0 0"/><path d="m176.550781 256v64.089844l-35.308593 13.769531v-67.265625zm0 0"/></g><path d="m88.277344 363.28125c-4.875 0-8.828125-3.953125-8.828125-8.828125v-267.527344c0-2.914062 1.4375-5.640625 3.839843-7.285156 2.40625-1.644531 5.46875-1.996094 8.183594-.941406l88.273438 34.328125c3.394531 1.320312 5.632812 4.585937 5.632812 8.226562v198.871094c0 3.640625-2.238281 6.90625-5.632812 8.226562l-88.273438 34.328126c-1.019531.398437-2.105468.601562-3.195312.601562zm8.824218-263.449219v241.714844l70.621094-27.460937v-186.792969zm0 0" fill="#b19046"/><path d="m141.242188 342.6875c-4.875 0-8.828126-3.953125-8.828126-8.828125v-226.339844c0-4.875 3.953126-8.828125 8.828126-8.828125s8.828124 3.953125 8.828124 8.828125v226.339844c0 4.875-3.953124 8.828125-8.828124 8.828125zm0 0" fill="#b19046"/><path d="m176.550781 194.207031c-.855469 0-1.710937-.125-2.53125-.371093l-88.277343-26.484376c-4.671876-1.398437-7.324219-6.316406-5.921876-10.988281 1.398438-4.671875 6.320313-7.324219 10.988282-5.921875l88.277344 26.480469c4.195312 1.257813 6.835937 5.402344 6.203124 9.738281-.636718 4.335938-4.355468 7.546875-8.738281 7.546875zm0 0" fill="#b19046"/><path d="m88.277344 291.308594c-4.382813.003906-8.101563-3.210938-8.738282-7.546875-.636718-4.335938 2.003907-8.480469 6.203126-9.734375l88.277343-26.484375c3.019531-.90625 6.292969-.128907 8.589844 2.035156 2.292969 2.164063 3.257813 5.386719 2.53125 8.457031-.726563 3.066406-3.035156 5.515625-6.054687 6.421875l-88.277344 26.484375c-.820313.242188-1.675782.367188-2.53125.367188zm0 0" fill="#b19046"/><path d="m459.035156 406.070312-153.265625-59.605468c-3.394531-1.316406-5.632812-4.585938-5.632812-8.226563v-235.097656c0-3.640625 2.238281-6.90625 5.632812-8.226563l153.265625-59.605468zm0 0" fill="#e4c05c"/><path d="m370.757812 266.59375v67.265625l52.964844 20.566406v-71.941406zm0 0" fill="#67b9cc"/><path d="m370.757812 174.785156v91.808594l52.964844 15.890625v-123.585937zm0 0" fill="#67b9cc"/><path d="m370.757812 107.519531v67.265625l52.964844-15.886718v-71.945313zm0 0" fill="#67b9cc"/><path d="m335.449219 121.292969v64.085937l35.308593-10.59375v-67.265625zm0 0" fill="#67b9cc"/><path d="m335.449219 185.378906v70.621094l35.308593 10.59375v-91.808594zm0 0" fill="#67b9cc"/><path d="m335.449219 256v64.089844l35.308593 13.769531v-67.265625zm0 0" fill="#67b9cc"/><path d="m420.519531 362.679688-88.277343-34.328126c-3.390626-1.320312-5.621094-4.589843-5.621094-8.226562v-198.871094c0-3.636718 2.230468-6.90625 5.621094-8.226562l88.277343-34.328125c2.714844-1.058594 5.78125-.707031 8.1875.9375s3.84375 4.375 3.84375 7.289062v267.527344c0 4.875-3.953125 8.828125-8.828125 8.828125-1.09375 0-2.179687-.203125-3.203125-.601562zm-76.242187-235.386719v186.792969l70.621094 27.460937v-241.714844zm0 0" fill="#b19046"/><path d="m370.757812 342.6875c4.875 0 8.828126-3.953125 8.828126-8.828125v-226.339844c0-4.875-3.953126-8.828125-8.828126-8.828125s-8.828124 3.953125-8.828124 8.828125v226.339844c0 4.875 3.953124 8.828125 8.828124 8.828125zm0 0" fill="#b19046"/><path d="m335.449219 194.207031c.859375 0 1.714843-.125 2.542969-.371093l88.273437-26.484376c3.023437-.90625 5.332031-3.355468 6.054687-6.425781.726563-3.070312-.242187-6.292969-2.535156-8.457031-2.296875-2.160156-5.574218-2.9375-8.59375-2.027344l-88.277344 26.480469c-4.195312 1.257813-6.835937 5.402344-6.203124 9.738281.636718 4.335938 4.355468 7.546875 8.738281 7.546875zm0 0" fill="#b19046"/><path d="m423.722656 291.308594c4.382813.003906 8.101563-3.210938 8.738282-7.546875.636718-4.335938-2.003907-8.480469-6.203126-9.734375l-88.277343-26.484375c-4.667969-1.402344-9.589844 1.25-10.992188 5.917969-1.402343 4.671874 1.246094 9.59375 5.917969 10.996093l88.277344 26.484375c.824218.242188 1.679687.367188 2.539062.367188zm0 0" fill="#b19046"/></svg>