<svg height="512pt" viewBox="-125 0 512 512" width="512pt" xmlns="http://www.w3.org/2000/svg"><path d="m232.78125 297.242188v-195.769532c0-55.953125-45.519531-101.472656-101.472656-101.472656s-101.472656 45.519531-101.472656 101.472656v195.769532c-.773438.941406-1.535157 1.894531-2.285157 2.855468-18.847656 24.25-28.601562 54.582032-27.4609372 85.410156 1.1406252 30.828126 13.1093752 60.351563 33.7031252 83.144532 24.890625 27.546875 60.433593 43.34375 97.507812 43.347656h.011719c35.550781 0 70.074219-14.710938 94.722656-40.359375 22.324219-23.230469 35.273438-53.835937 36.460938-86.171875 1.183594-32.175781-9.367188-63.484375-29.714844-88.226562zm0 0" fill="#fdbf00"/><path d="m232.78125 297.242188v-195.769532c0-55.953125-45.519531-101.472656-101.472656-101.472656-.214844 0-.425782.0078125-.636719.0078125v511.9843755c.210937 0 .421875.007812.632813.007812h.007812c35.550781 0 70.078125-14.710938 94.726562-40.359375 22.320313-23.230469 35.269532-53.832031 36.460938-86.171875 1.179688-32.175781-9.371094-63.484375-29.71875-88.226562zm0 0" fill="#ff9100"/><path d="m188.066406 333.636719c-3.824218-4.613281-8.15625-8.710938-12.9375-12.242188v-219.921875c0-24.164062-19.65625-43.820312-43.820312-43.820312-24.160156 0-43.820313 19.65625-43.820313 43.820312v219.917969c-5.410156 3.996094-10.238281 8.714844-14.417969 14.089844-10.550781 13.574219-16.007812 30.582031-15.367187 47.894531s7.339844 33.871094 18.867187 46.625c13.894532 15.378906 32.933594 24.023438 53.601563 24.34375.375.003906.746094.007812 1.121094.007812 19.980469 0 39.304687-8.21875 53.175781-22.652343 12.5-13.007813 19.75-30.179688 20.417969-48.347657.667969-18.175781-5.304688-35.832031-16.820313-49.714843zm0 0" fill="#fff587"/><path d="m188.066406 333.636719c-3.824218-4.613281-8.15625-8.710938-12.9375-12.242188v-219.921875c0-24.164062-19.65625-43.820312-43.820312-43.820312-.214844 0-.425782.011718-.636719.015625v396.675781c.207031.003906.410156.007812.617187.007812 19.980469 0 39.308594-8.222656 53.179688-22.65625 12.5-13.003906 19.75-30.175781 20.417969-48.34375.667969-18.175781-5.304688-35.832031-16.820313-49.714843zm0 0" fill="#fdbf00"/><path d="m188.066406 333.636719c-3.824218-4.613281-8.15625-8.710938-12.9375-12.242188v-174.992187h-87.640625v174.988281c-5.410156 3.996094-10.238281 8.714844-14.417969 14.089844-10.550781 13.574219-16.007812 30.582031-15.367187 47.894531s7.339844 33.871094 18.867187 46.625c13.894532 15.378906 32.929688 24.023438 53.601563 24.34375.371094.003906.746094.007812 1.117187.007812 19.980469 0 39.308594-8.21875 53.179688-22.652343 12.5-13.007813 19.75-30.179688 20.417969-48.347657.667969-18.175781-5.304688-35.832031-16.820313-49.714843zm0 0" fill="#fb4c2e"/><path d="m188.066406 333.636719c-3.824218-4.613281-8.15625-8.710938-12.9375-12.242188v-174.992187h-44.457031v307.941406c.207031.003906.410156.007812.617187.007812 19.980469 0 39.308594-8.222656 53.179688-22.65625 12.5-13.003906 19.75-30.175781 20.417969-48.34375.667969-18.175781-5.304688-35.832031-16.820313-49.714843zm0 0" fill="#de1617"/></svg>